<svg xmlns="http://www.w3.org/2000/svg" xmlns:xlink="http://www.w3.org/1999/xlink" width="250" zoomAndPan="magnify" viewBox="0 0 187.5 37.5" height="50" preserveAspectRatio="xMidYMid meet" version="1.0"><defs><g/></defs><g fill="#14b885" fill-opacity="0.5294"><g transform="translate(7.93138, 34.110434)"><g><path d="M 29.75 -31.65625 L 29.75 0 L 22.265625 0 L 9.75 -18.28125 L 9.75 0 L 2.421875 0 L 2.421875 -31.65625 L 9.84375 -31.65625 L 22.421875 -12.671875 L 22.421875 -31.65625 Z M 29.75 -31.65625 "/></g></g></g><g fill="#14b885" fill-opacity="0.5294"><g transform="translate(49.38198, 34.110434)"><g><path d="M 24.234375 -7.328125 L 24.234375 0 L 2.421875 0 L 2.421875 -31.65625 L 23.78125 -31.65625 L 23.78125 -24.59375 L 10.25 -24.59375 L 10.25 -19.34375 L 21.921875 -19.34375 L 21.921875 -12.78125 L 10.25 -12.78125 L 10.25 -7.328125 Z M 24.234375 -7.328125 "/></g></g></g><g fill="#14b885" fill-opacity="0.5294"><g transform="translate(84.168376, 34.110434)"><g><path d="M 19.1875 -16.46875 L 29.6875 0 L 20.15625 0 L 13.984375 -10.09375 L 8.078125 0 L -0.5 0 L 9.890625 -16.15625 L 0.09375 -31.65625 L 9.640625 -31.65625 L 14.953125 -22.625 L 20.296875 -31.65625 L 28.640625 -31.65625 Z M 19.1875 -16.46875 "/></g></g></g><g fill="#14b885" fill-opacity="0.5294"><g transform="translate(122.48882, 34.110434)"><g><path d="M 25.703125 -31.65625 L 25.703125 -24.59375 L 17.0625 -24.59375 L 17.0625 0 L 9.234375 0 L 9.234375 -24.59375 L 0.609375 -24.59375 L 0.609375 -31.65625 Z M 25.703125 -31.65625 "/></g></g></g><g fill="#14b885" fill-opacity="1"><g transform="translate(7.338753, 32.99586)"><g><path d="M 29.75 -31.65625 L 29.75 0 L 22.265625 0 L 9.75 -18.28125 L 9.75 0 L 2.421875 0 L 2.421875 -31.65625 L 9.84375 -31.65625 L 22.421875 -12.671875 L 22.421875 -31.65625 Z M 29.75 -31.65625 "/></g></g></g><g fill="#14b885" fill-opacity="1"><g transform="translate(48.789353, 32.99586)"><g><path d="M 24.234375 -7.328125 L 24.234375 0 L 2.421875 0 L 2.421875 -31.65625 L 23.78125 -31.65625 L 23.78125 -24.59375 L 10.25 -24.59375 L 10.25 -19.34375 L 21.921875 -19.34375 L 21.921875 -12.78125 L 10.25 -12.78125 L 10.25 -7.328125 Z M 24.234375 -7.328125 "/></g></g></g><g fill="#14b885" fill-opacity="1"><g transform="translate(83.57575, 32.99586)"><g><path d="M 19.1875 -16.46875 L 29.6875 0 L 20.15625 0 L 13.984375 -10.09375 L 8.078125 0 L -0.5 0 L 9.890625 -16.15625 L 0.09375 -31.65625 L 9.640625 -31.65625 L 14.953125 -22.625 L 20.296875 -31.65625 L 28.640625 -31.65625 Z M 19.1875 -16.46875 "/></g></g></g><g fill="#14b885" fill-opacity="1"><g transform="translate(121.896194, 32.99586)"><g><path d="M 25.703125 -31.65625 L 25.703125 -24.59375 L 17.0625 -24.59375 L 17.0625 0 L 9.234375 0 L 9.234375 -24.59375 L 0.609375 -24.59375 L 0.609375 -31.65625 Z M 25.703125 -31.65625 "/></g></g></g><g fill="#14b885" fill-opacity="0.5294"><g transform="translate(157.510331, 33.323792)"><g><path d="M 4.28125 -2.65625 L 4.28125 -6.3125 L 5.84375 -6.3125 L 5.84375 -2.65625 C 5.84375 -1.738281 5.617188 -1.050781 5.171875 -0.59375 C 4.722656 -0.132812 4.050781 0.09375 3.15625 0.09375 C 2.207031 0.09375 1.515625 -0.117188 1.078125 -0.546875 C 0.648438 -0.984375 0.4375 -1.6875 0.4375 -2.65625 L 0.4375 -6.3125 L 2 -6.3125 L 2 -2.65625 C 2 -2.144531 2.078125 -1.800781 2.234375 -1.625 C 2.390625 -1.445312 2.695312 -1.359375 3.15625 -1.359375 C 3.601562 -1.359375 3.898438 -1.445312 4.046875 -1.625 C 4.203125 -1.800781 4.28125 -2.144531 4.28125 -2.65625 Z M 4.28125 -2.65625 "/></g></g></g><g fill="#14b885" fill-opacity="0.5294"><g transform="translate(169.272394, 33.323792)"><g><path d="M 5.921875 -6.3125 L 5.921875 0 L 4.4375 0 L 1.9375 -3.640625 L 1.9375 0 L 0.484375 0 L 0.484375 -6.3125 L 1.96875 -6.3125 L 4.46875 -2.53125 L 4.46875 -6.3125 Z M 5.921875 -6.3125 "/></g></g></g><g fill="#14b885" fill-opacity="0.5294"><g transform="translate(181.165244, 33.323792)"><g><path d="M 2.046875 -6.3125 L 2.046875 0 L 0.484375 0 L 0.484375 -6.3125 Z M 2.046875 -6.3125 "/></g></g></g><g fill="#14b885" fill-opacity="1"><g transform="translate(157.39223, 33.101666)"><g><path d="M 4.28125 -2.65625 L 4.28125 -6.3125 L 5.84375 -6.3125 L 5.84375 -2.65625 C 5.84375 -1.738281 5.617188 -1.050781 5.171875 -0.59375 C 4.722656 -0.132812 4.050781 0.09375 3.15625 0.09375 C 2.207031 0.09375 1.515625 -0.117188 1.078125 -0.546875 C 0.648438 -0.984375 0.4375 -1.6875 0.4375 -2.65625 L 0.4375 -6.3125 L 2 -6.3125 L 2 -2.65625 C 2 -2.144531 2.078125 -1.800781 2.234375 -1.625 C 2.390625 -1.445312 2.695312 -1.359375 3.15625 -1.359375 C 3.601562 -1.359375 3.898438 -1.445312 4.046875 -1.625 C 4.203125 -1.800781 4.28125 -2.144531 4.28125 -2.65625 Z M 4.28125 -2.65625 "/></g></g></g><g fill="#14b885" fill-opacity="1"><g transform="translate(169.154292, 33.101666)"><g><path d="M 5.921875 -6.3125 L 5.921875 0 L 4.4375 0 L 1.9375 -3.640625 L 1.9375 0 L 0.484375 0 L 0.484375 -6.3125 L 1.96875 -6.3125 L 4.46875 -2.53125 L 4.46875 -6.3125 Z M 5.921875 -6.3125 "/></g></g></g><g fill="#14b885" fill-opacity="1"><g transform="translate(181.047143, 33.101666)"><g><path d="M 2.046875 -6.3125 L 2.046875 0 L 0.484375 0 L 0.484375 -6.3125 Z M 2.046875 -6.3125 "/></g></g></g></svg>