<svg xmlns="http://www.w3.org/2000/svg" xmlns:xlink="http://www.w3.org/1999/xlink" width="380" zoomAndPan="magnify" viewBox="0 0 285 104.999996" height="140" preserveAspectRatio="xMidYMid meet" version="1.0"><defs><g/><clipPath id="66fb568513"><path d="M 142.390625 18.609375 L 207 18.609375 L 207 44 L 142.390625 44 Z M 142.390625 18.609375 " clip-rule="nonzero"/></clipPath><clipPath id="ea0016e4fb"><path d="M 155.476562 18.609375 L 194.816406 18.609375 C 202.042969 18.609375 207.902344 24.46875 207.902344 31.695312 C 207.902344 38.925781 202.042969 44.785156 194.816406 44.785156 L 155.476562 44.785156 C 148.25 44.785156 142.390625 38.925781 142.390625 31.695312 C 142.390625 24.46875 148.25 18.609375 155.476562 18.609375 " clip-rule="nonzero"/></clipPath><clipPath id="a8ee495d4e"><path d="M 10.5 18.609375 L 24.367188 18.609375 L 24.367188 87.378906 L 10.5 87.378906 Z M 10.5 18.609375 " clip-rule="nonzero"/></clipPath></defs><g fill="#22b8cf" fill-opacity="1"><g transform="translate(29.918933, 41.733958)"><g><path d="M 22.84375 -22.0625 L 22.84375 0 L 18.65625 0 L 7.65625 -13.390625 L 7.65625 0 L 2.609375 0 L 2.609375 -22.0625 L 6.84375 -22.0625 L 17.8125 -8.671875 L 17.8125 -22.0625 Z M 22.84375 -22.0625 "/></g></g></g><g fill="#22b8cf" fill-opacity="1"><g transform="translate(59.794609, 41.733958)"><g><path d="M 19.703125 -4.09375 L 19.703125 0 L 2.609375 0 L 2.609375 -22.0625 L 19.28125 -22.0625 L 19.28125 -17.96875 L 7.6875 -17.96875 L 7.6875 -13.171875 L 17.9375 -13.171875 L 17.9375 -9.203125 L 7.6875 -9.203125 L 7.6875 -4.09375 Z M 19.703125 -4.09375 "/></g></g></g><g fill="#22b8cf" fill-opacity="1"><g transform="translate(85.352983, 41.733958)"><g><path d="M 16.515625 0 L 11.1875 -7.65625 L 5.953125 0 L 0.09375 0 L 8.25 -11.21875 L 0.5 -22.0625 L 6.296875 -22.0625 L 11.375 -14.90625 L 16.359375 -22.0625 L 21.875 -22.0625 L 14.1875 -11.40625 L 22.40625 0 Z M 16.515625 0 "/></g></g></g><g fill="#22b8cf" fill-opacity="1"><g transform="translate(112.266423, 41.733958)"><g><path d="M 7.1875 -17.90625 L 0.125 -17.90625 L 0.125 -22.0625 L 19.34375 -22.0625 L 19.34375 -17.90625 L 12.296875 -17.90625 L 12.296875 0 L 7.1875 0 Z M 7.1875 -17.90625 "/></g></g></g><g fill="#22b8cf" fill-opacity="1"><g transform="translate(136.140145, 41.733958)"><g/></g></g><g fill="#22b8cf" fill-opacity="1"><g transform="translate(29.918933, 84.798127)"><g><path d="M 12.421875 0.375 C 9.265625 0.375 6.804688 -0.492188 5.046875 -2.234375 C 3.296875 -3.984375 2.421875 -6.472656 2.421875 -9.703125 L 2.421875 -22.0625 L 7.53125 -22.0625 L 7.53125 -9.890625 C 7.53125 -5.941406 9.171875 -3.96875 12.453125 -3.96875 C 14.046875 -3.96875 15.257812 -4.445312 16.09375 -5.40625 C 16.9375 -6.363281 17.359375 -7.859375 17.359375 -9.890625 L 17.359375 -22.0625 L 22.40625 -22.0625 L 22.40625 -9.703125 C 22.40625 -6.472656 21.523438 -3.984375 19.765625 -2.234375 C 18.015625 -0.492188 15.566406 0.375 12.421875 0.375 Z M 12.421875 0.375 "/></g></g></g><g fill="#22b8cf" fill-opacity="1"><g transform="translate(59.164334, 84.798127)"><g><path d="M 22.84375 -22.0625 L 22.84375 0 L 18.65625 0 L 7.65625 -13.390625 L 7.65625 0 L 2.609375 0 L 2.609375 -22.0625 L 6.84375 -22.0625 L 17.8125 -8.671875 L 17.8125 -22.0625 Z M 22.84375 -22.0625 "/></g></g></g><g fill="#22b8cf" fill-opacity="1"><g transform="translate(89.04001, 84.798127)"><g><path d="M 2.609375 -22.0625 L 7.71875 -22.0625 L 7.71875 0 L 2.609375 0 Z M 2.609375 -22.0625 "/></g></g></g><g fill="#22b8cf" fill-opacity="1"><g transform="translate(103.789358, 84.798127)"><g><path d="M 23.828125 -22.0625 L 14.28125 0 L 9.234375 0 L -0.28125 -22.0625 L 5.234375 -22.0625 L 11.9375 -6.296875 L 18.75 -22.0625 Z M 23.828125 -22.0625 "/></g></g></g><g fill="#22b8cf" fill-opacity="1"><g transform="translate(131.711215, 84.798127)"><g><path d="M 19.703125 -4.09375 L 19.703125 0 L 2.609375 0 L 2.609375 -22.0625 L 19.28125 -22.0625 L 19.28125 -17.96875 L 7.6875 -17.96875 L 7.6875 -13.171875 L 17.9375 -13.171875 L 17.9375 -9.203125 L 7.6875 -9.203125 L 7.6875 -4.09375 Z M 19.703125 -4.09375 "/></g></g></g><g fill="#22b8cf" fill-opacity="1"><g transform="translate(157.269587, 84.798127)"><g><path d="M 16.671875 0 L 12.421875 -6.140625 L 7.71875 -6.140625 L 7.71875 0 L 2.609375 0 L 2.609375 -22.0625 L 12.171875 -22.0625 C 14.117188 -22.0625 15.8125 -21.734375 17.25 -21.078125 C 18.6875 -20.429688 19.796875 -19.507812 20.578125 -18.3125 C 21.359375 -17.113281 21.75 -15.695312 21.75 -14.0625 C 21.75 -12.414062 21.351562 -11 20.5625 -9.8125 C 19.769531 -8.625 18.648438 -7.71875 17.203125 -7.09375 L 22.15625 0 Z M 16.578125 -14.0625 C 16.578125 -15.300781 16.175781 -16.25 15.375 -16.90625 C 14.582031 -17.570312 13.414062 -17.90625 11.875 -17.90625 L 7.71875 -17.90625 L 7.71875 -10.21875 L 11.875 -10.21875 C 13.414062 -10.21875 14.582031 -10.550781 15.375 -11.21875 C 16.175781 -11.894531 16.578125 -12.84375 16.578125 -14.0625 Z M 16.578125 -14.0625 "/></g></g></g><g fill="#22b8cf" fill-opacity="1"><g transform="translate(184.844811, 84.798127)"><g><path d="M 9.859375 0.375 C 8.117188 0.375 6.429688 0.140625 4.796875 -0.328125 C 3.171875 -0.804688 1.863281 -1.421875 0.875 -2.171875 L 2.609375 -6.015625 C 3.554688 -5.328125 4.679688 -4.769531 5.984375 -4.34375 C 7.285156 -3.925781 8.585938 -3.71875 9.890625 -3.71875 C 11.347656 -3.71875 12.421875 -3.929688 13.109375 -4.359375 C 13.804688 -4.796875 14.15625 -5.367188 14.15625 -6.078125 C 14.15625 -6.609375 13.945312 -7.046875 13.53125 -7.390625 C 13.125 -7.734375 12.597656 -8.007812 11.953125 -8.21875 C 11.316406 -8.4375 10.453125 -8.671875 9.359375 -8.921875 C 7.679688 -9.316406 6.304688 -9.710938 5.234375 -10.109375 C 4.160156 -10.515625 3.238281 -11.15625 2.46875 -12.03125 C 1.707031 -12.914062 1.328125 -14.09375 1.328125 -15.5625 C 1.328125 -16.84375 1.671875 -18.003906 2.359375 -19.046875 C 3.054688 -20.085938 4.101562 -20.910156 5.5 -21.515625 C 6.894531 -22.128906 8.601562 -22.4375 10.625 -22.4375 C 12.03125 -22.4375 13.40625 -22.269531 14.75 -21.9375 C 16.09375 -21.601562 17.269531 -21.117188 18.28125 -20.484375 L 16.703125 -16.609375 C 14.660156 -17.765625 12.625 -18.34375 10.59375 -18.34375 C 9.164062 -18.34375 8.109375 -18.109375 7.421875 -17.640625 C 6.734375 -17.179688 6.390625 -16.578125 6.390625 -15.828125 C 6.390625 -15.066406 6.785156 -14.5 7.578125 -14.125 C 8.367188 -13.757812 9.570312 -13.398438 11.1875 -13.046875 C 12.863281 -12.648438 14.238281 -12.25 15.3125 -11.84375 C 16.382812 -11.445312 17.300781 -10.816406 18.0625 -9.953125 C 18.832031 -9.097656 19.21875 -7.929688 19.21875 -6.453125 C 19.21875 -5.191406 18.863281 -4.039062 18.15625 -3 C 17.457031 -1.96875 16.40625 -1.144531 15 -0.53125 C 13.59375 0.0703125 11.878906 0.375 9.859375 0.375 Z M 9.859375 0.375 "/></g></g></g><g fill="#22b8cf" fill-opacity="1"><g transform="translate(209.363246, 84.798127)"><g><path d="M 2.609375 -22.0625 L 7.71875 -22.0625 L 7.71875 0 L 2.609375 0 Z M 2.609375 -22.0625 "/></g></g></g><g fill="#22b8cf" fill-opacity="1"><g transform="translate(224.112598, 84.798127)"><g><path d="M 7.1875 -17.90625 L 0.125 -17.90625 L 0.125 -22.0625 L 19.34375 -22.0625 L 19.34375 -17.90625 L 12.296875 -17.90625 L 12.296875 0 L 7.1875 0 Z M 7.1875 -17.90625 "/></g></g></g><g fill="#22b8cf" fill-opacity="1"><g transform="translate(248.000776, 84.798127)"><g><path d="M 13.203125 -7.8125 L 13.203125 0 L 8.09375 0 L 8.09375 -7.875 L -0.4375 -22.0625 L 4.984375 -22.0625 L 10.875 -12.265625 L 16.765625 -22.0625 L 21.78125 -22.0625 Z M 13.203125 -7.8125 "/></g></g></g><g clip-path="url(#66fb568513)"><g clip-path="url(#ea0016e4fb)"><path fill="#5e1fdb" d="M 142.390625 18.609375 L 206.875 18.609375 L 206.875 43.84375 L 142.390625 43.84375 Z M 142.390625 18.609375 " fill-opacity="1" fill-rule="nonzero"/></g></g><g fill="#ffffff" fill-opacity="1"><g transform="translate(162.959757, 35.110252)"><g><path d="M 3.640625 -3.417969 C 3.613281 -3.597656 3.417969 -3.542969 3.320312 -3.472656 C 3.195312 -3.390625 2.5 -2.472656 2.554688 -2.402344 C 2.597656 -2.402344 2.625 -2.402344 2.652344 -2.429688 C 2.457031 -2.195312 2.097656 -1.929688 1.832031 -1.722656 C 1.679688 -1.597656 1.304688 -1.25 1.082031 -1.359375 C 0.609375 -1.597656 1.570312 -3.265625 1.527344 -3.277344 C 1.484375 -3.292969 1.140625 -2.515625 1.070312 -2.332031 C 1.234375 -2.820312 1.457031 -3.304688 1.722656 -3.738281 C 1.707031 -3.695312 1.667969 -3.625 1.695312 -3.625 C 1.722656 -3.613281 1.929688 -3.902344 1.890625 -3.929688 C 1.875 -3.929688 1.847656 -3.929688 1.832031 -3.917969 C 1.875 -3.957031 1.945312 -3.972656 1.945312 -4.054688 C 1.945312 -4.195312 1.625 -4.332031 1.515625 -4.375 C 1.25 -4.488281 0.984375 -4.515625 0.777344 -4.375 C 0.5 -4.207031 0.445312 -3.875 0.332031 -3.582031 C 0.304688 -3.5 0.0429688 -2.515625 0.0976562 -2.5 C 0.125 -2.515625 0.125 -2.527344 0.140625 -2.554688 L 0.0976562 -2.304688 C 0.0820312 -2.304688 0.109375 -2.375 0.0820312 -2.375 C -0.0273438 -2.375 0 -1.875 0.015625 -1.804688 C 0.0703125 -1.554688 0.265625 -1.375 0.417969 -1.167969 C 0.5 -1.042969 0.582031 -0.917969 0.707031 -0.832031 C 0.875 -0.707031 0.765625 -0.832031 0.875 -0.777344 L 0.847656 -0.777344 C 0.832031 -0.695312 1.359375 -0.554688 1.472656 -0.570312 C 1.957031 -0.679688 2.304688 -1.277344 2.582031 -1.652344 C 2.847656 -1.984375 3.070312 -2.320312 3.304688 -2.667969 C 3.445312 -2.847656 3.695312 -3.152344 3.640625 -3.417969 Z M 1.207031 -5.167969 C 1.234375 -5.125 1.195312 -5.070312 1.292969 -5.015625 C 1.390625 -4.972656 1.445312 -5.027344 1.527344 -5.054688 C 1.695312 -5.125 1.820312 -5.304688 1.945312 -5.417969 C 1.984375 -5.445312 1.902344 -5.429688 1.902344 -5.429688 C 2.082031 -5.597656 1.929688 -5.402344 2.097656 -5.5 C 2.265625 -5.613281 2.292969 -5.792969 2.429688 -5.945312 C 2.265625 -5.875 2.140625 -5.777344 2.027344 -5.640625 C 1.890625 -5.457031 1.792969 -5.375 1.640625 -5.277344 C 1.804688 -5.402344 1.890625 -5.527344 2.027344 -5.75 C 2.070312 -5.792969 2.109375 -5.820312 2.167969 -5.847656 C 2.125 -5.890625 2.125 -5.929688 2.179688 -5.972656 C 2.222656 -6.042969 2.304688 -6.070312 2.347656 -6.140625 C 2.417969 -6.238281 2.402344 -6.363281 2.484375 -6.457031 C 2.554688 -6.515625 2.652344 -6.554688 2.707031 -6.613281 C 2.832031 -6.722656 2.972656 -6.929688 2.917969 -7.113281 C 2.863281 -7.277344 2.722656 -7.488281 2.570312 -7.582031 C 2.390625 -7.679688 2.140625 -7.722656 1.945312 -7.640625 C 1.902344 -7.625 1.734375 -7.582031 1.792969 -7.527344 C 1.804688 -7.5 1.820312 -7.5 1.847656 -7.5 C 1.722656 -7.402344 1.515625 -7.238281 1.804688 -7.125 C 1.777344 -7.097656 1.804688 -6.972656 1.804688 -6.957031 C 1.792969 -6.863281 1.597656 -6.347656 1.472656 -6.097656 L 1.640625 -6.347656 C 1.542969 -6.140625 1.429688 -5.945312 1.304688 -5.777344 C 1.390625 -5.957031 1.222656 -5.75 1.222656 -5.707031 C 1.070312 -5.777344 1.109375 -5.347656 1.125 -5.304688 C 1.125 -5.292969 1.207031 -5.167969 1.207031 -5.167969 Z M 0.945312 -1.859375 L 0.945312 -1.847656 L 0.917969 -1.765625 L 0.945312 -1.875 C 0.957031 -1.890625 0.957031 -1.890625 0.945312 -1.859375 Z M 1.402344 -5.988281 C 1.402344 -5.988281 1.429688 -6.015625 1.457031 -6.070312 Z M 1.265625 -5.722656 C 1.265625 -5.707031 1.265625 -5.707031 1.25 -5.695312 C 1.25 -5.695312 1.25 -5.707031 1.234375 -5.707031 C 1.25 -5.707031 1.25 -5.707031 1.265625 -5.722656 Z M 1.265625 -5.722656 "/></g></g></g><g fill="#ffffff" fill-opacity="1"><g transform="translate(166.973847, 35.110252)"><g><path d="M 8.210938 -3.390625 L 8.210938 -3.402344 C 8.125 -3.863281 7.5 -3.097656 7.417969 -3.027344 C 7.015625 -2.582031 6.640625 -2.097656 6.277344 -1.609375 C 5.917969 -1.109375 5.570312 -0.609375 5.195312 -0.109375 C 5.015625 0.140625 4.832031 0.375 4.625 0.597656 C 4.554688 0.679688 4.390625 0.917969 4.265625 0.917969 C 3.777344 0.917969 4.152344 -1.042969 4.207031 -1.347656 C 4.292969 -1.890625 4.332031 -2.609375 4.679688 -3.042969 C 4.765625 -3.152344 5.707031 -4.363281 5.707031 -4.363281 C 5.679688 -4.375 5.570312 -4.238281 5.5 -4.152344 L 6.097656 -4.957031 L 6.140625 -5.015625 L 6.152344 -5.015625 L 6.140625 -5.015625 L 6.25 -5.167969 C 6.265625 -5.152344 6.25 -5.125 6.238281 -5.097656 L 6.363281 -5.238281 L 6.722656 -5.707031 C 6.988281 -6.082031 7.238281 -6.488281 7.472656 -6.875 C 7.847656 -7.515625 8.363281 -8.429688 8.082031 -9.210938 C 7.875 -9.777344 7.113281 -9.890625 6.597656 -9.695312 C 6.222656 -9.554688 5.902344 -9.265625 5.640625 -8.960938 C 5.5 -8.777344 5.363281 -8.585938 5.238281 -8.375 C 5.195312 -8.320312 5.015625 -7.875 4.972656 -7.820312 L 4.988281 -7.820312 C 4.902344 -7.667969 4.820312 -7.515625 4.765625 -7.363281 C 4.792969 -7.472656 4.863281 -7.695312 4.917969 -7.738281 C 4.804688 -7.652344 4.707031 -7.25 4.679688 -7.207031 C 4.152344 -6.054688 3.695312 -4.890625 3.363281 -3.667969 C 2.988281 -4.097656 2.390625 -4.832031 1.734375 -4.570312 C 1.195312 -4.347656 0.792969 -3.777344 0.515625 -3.277344 C 0.265625 -2.832031 0.195312 -2.375 0.015625 -1.945312 C -0.304688 -1.207031 -0.457031 0.304688 0.625 0.527344 C 0.957031 0.597656 1.265625 0.390625 1.527344 0.207031 C 2 -0.140625 2.445312 -0.542969 2.863281 -0.957031 C 2.792969 -0.222656 2.640625 0.890625 3.238281 1.472656 C 3.972656 2.222656 4.707031 1.207031 5.152344 0.652344 C 5.722656 -0.0703125 6.167969 -0.875 6.738281 -1.570312 C 7.015625 -1.902344 7.292969 -2.234375 7.582031 -2.542969 C 7.804688 -2.765625 8.25 -3.042969 8.210938 -3.390625 Z M 3.097656 -2.472656 C 3.082031 -2.429688 3.082031 -2.402344 3.082031 -2.402344 C 3.027344 -2.070312 3.027344 -1.777344 2.792969 -1.542969 C 2.582031 -1.320312 2.359375 -1.109375 2.140625 -0.902344 C 1.929688 -0.707031 1.429688 -0.140625 1.109375 -0.167969 C 0.722656 -0.207031 1.015625 -1.097656 1.207031 -1.640625 C 1 -1.082031 0.667969 -0.179688 1.125 -0.152344 C 1.25 -0.140625 1.457031 -0.25 1.640625 -0.402344 C 1.472656 -0.25 1.195312 -0.0429688 1.027344 -0.125 C 0.707031 -0.265625 0.984375 -1.054688 1.042969 -1.277344 C 1.222656 -1.917969 1.484375 -2.527344 1.792969 -3.113281 C 1.945312 -3.402344 2.167969 -3.875 2.457031 -3.902344 L 2.390625 -3.863281 C 2.402344 -3.875 2.417969 -3.875 2.429688 -3.875 C 2.527344 -3.902344 2.625 -3.832031 2.695312 -3.777344 C 2.875 -3.652344 2.988281 -3.417969 3.113281 -3.238281 C 3.25 -3.015625 3.152344 -2.777344 3.097656 -2.527344 Z M 5.332031 -5.679688 C 5.332031 -5.695312 5.332031 -5.722656 5.347656 -5.738281 L 5.347656 -5.75 C 5.363281 -5.792969 5.375 -5.804688 5.375 -5.804688 L 5.375 -5.820312 C 5.695312 -6.707031 6.042969 -7.597656 6.542969 -8.402344 C 6.667969 -8.613281 7.027344 -9.25 7.347656 -9.070312 C 7.472656 -9 7.5 -8.820312 7.5 -8.695312 C 7.554688 -7.863281 6.890625 -6.875 6.472656 -6.207031 C 5.988281 -5.429688 5.445312 -4.667969 4.875 -3.957031 L 5.179688 -4.277344 L 5.457031 -4.625 L 4.75 -3.707031 L 4.652344 -3.582031 L 4.597656 -3.527344 C 4.613281 -3.613281 4.679688 -3.695312 4.75 -3.792969 C 4.722656 -3.765625 4.695312 -3.738281 4.679688 -3.707031 C 4.863281 -4.304688 5.054688 -4.902344 5.265625 -5.5 C 5.25 -5.488281 5.265625 -5.515625 5.277344 -5.570312 L 5.320312 -5.640625 C 5.320312 -5.652344 5.320312 -5.667969 5.332031 -5.679688 Z M 4.167969 -4.542969 C 4.140625 -4.472656 4.054688 -4.152344 4.015625 -4.113281 C 4.015625 -4.097656 4 -4.082031 3.988281 -4.082031 C 4.097656 -4.222656 4.027344 -4.402344 4.082031 -4.570312 C 4.113281 -4.652344 4.25 -4.804688 4.277344 -4.917969 C 4.277344 -4.804688 4.207031 -4.613281 4.167969 -4.542969 Z M 1.957031 -0.695312 C 2.304688 -1 2.640625 -1.320312 2.957031 -1.652344 C 2.929688 -1.472656 2.5 -1.167969 2.347656 -1.027344 C 2.167969 -0.847656 1.957031 -0.667969 1.75 -0.5 L 1.734375 -0.5 Z M 4.417969 -5.804688 C 4.363281 -5.640625 4.292969 -5.488281 4.207031 -5.332031 C 4.277344 -5.542969 4.320312 -5.75 4.417969 -5.945312 C 4.5 -6.097656 4.597656 -6.292969 4.667969 -6.472656 C 4.597656 -6.25 4.488281 -6.015625 4.417969 -5.804688 Z M 5.320312 -5.640625 L 5.265625 -5.5 C 5.265625 -5.515625 5.277344 -5.542969 5.277344 -5.570312 Z M 2.320312 -3.804688 C 2.265625 -3.765625 2.222656 -3.707031 2.207031 -3.707031 C 2.234375 -3.707031 2.277344 -3.765625 2.320312 -3.804688 Z M 2.707031 -3.832031 C 2.738281 -3.820312 2.765625 -3.804688 2.792969 -3.777344 Z M 5.457031 -4.082031 C 5.457031 -4.097656 5.472656 -4.113281 5.488281 -4.125 C 5.472656 -4.097656 5.457031 -4.082031 5.457031 -4.082031 Z M 5.488281 -4.125 L 5.5 -4.152344 C 5.5 -4.140625 5.488281 -4.125 5.488281 -4.125 Z M 5.488281 -4.125 "/></g></g></g><g fill="#ffffff" fill-opacity="1"><g transform="translate(175.556659, 35.110252)"><g><path d="M 5.320312 -3.429688 C 5.320312 -3.417969 5.320312 -3.417969 5.304688 -3.429688 L 5.304688 -3.445312 C 5.082031 -3.820312 4.792969 -3.304688 4.667969 -3.125 C 4.429688 -2.804688 4.207031 -2.5 3.957031 -2.207031 C 3.75 -1.957031 3.527344 -1.707031 3.363281 -1.445312 C 3.363281 -1.417969 3.332031 -1.347656 3.332031 -1.347656 C 3.277344 -1.265625 3.195312 -1.195312 3.125 -1.109375 C 3 -0.984375 2.875 -0.847656 2.738281 -0.722656 C 2.527344 -0.527344 1.359375 0.570312 1.207031 -0.140625 C 1.125 -0.484375 1.234375 -0.917969 1.304688 -1.25 C 1.347656 -1.429688 1.390625 -1.597656 1.417969 -1.777344 C 1.445312 -1.917969 1.402344 -2.054688 1.472656 -2.195312 C 1.515625 -2.277344 1.527344 -2.265625 1.625 -2.292969 L 1.859375 -2.375 C 2.015625 -2.429688 2.167969 -2.484375 2.304688 -2.570312 C 2.515625 -2.695312 2.707031 -2.847656 2.890625 -3 C 3.320312 -3.363281 3.777344 -3.792969 3.957031 -4.332031 C 4.054688 -4.640625 4.070312 -4.972656 3.875 -5.238281 C 3.695312 -5.472656 3.390625 -5.597656 3.113281 -5.652344 C 2.359375 -5.792969 1.792969 -5.363281 1.359375 -4.792969 C 0.832031 -4.140625 0.457031 -3.332031 0.277344 -2.515625 C 0.179688 -2.109375 0.125 -1.707031 0.0546875 -1.292969 C -0.015625 -0.875 -0.0546875 -0.484375 0.167969 -0.0976562 C 0.152344 -0.234375 0.125 -0.359375 0.125 -0.484375 C 0.125 -0.554688 0.152344 -0.625 0.152344 -0.679688 C 0.152344 -0.707031 0.125 -0.792969 0.125 -0.832031 C 0.125 -0.957031 0.152344 -1.054688 0.179688 -1.179688 C 0.195312 -1.304688 0.179688 -1.429688 0.195312 -1.554688 C 0.207031 -1.695312 0.265625 -1.804688 0.320312 -1.929688 C 0.359375 -2.042969 0.375 -2.140625 0.417969 -2.25 C 0.457031 -2.347656 0.484375 -2.457031 0.527344 -2.570312 C 0.542969 -2.640625 0.609375 -2.722656 0.652344 -2.804688 C 0.609375 -2.679688 0.527344 -2.570312 0.5 -2.457031 C 0.457031 -2.292969 0.484375 -2.109375 0.472656 -1.945312 C 0.445312 -1.765625 0.390625 -1.582031 0.359375 -1.390625 C 0.332031 -1.207031 0.25 -1.042969 0.222656 -0.859375 C 0.195312 -0.695312 0.140625 -0.570312 0.152344 -0.402344 C 0.152344 -0.304688 0.167969 -0.207031 0.179688 -0.125 C 0.195312 -0.015625 0.265625 0.0546875 0.332031 0.140625 C 0.570312 0.417969 0.890625 0.640625 1.25 0.734375 C 1.5 0.804688 1.722656 0.792969 1.957031 0.667969 C 2.292969 0.484375 2.582031 0.207031 2.832031 -0.0546875 C 3.070312 -0.320312 3.25 -0.609375 3.457031 -0.890625 C 3.652344 -1.140625 3.890625 -1.375 4.082031 -1.625 L 4.832031 -2.597656 L 5.265625 -3.167969 C 5.332031 -3.25 5.375 -3.320312 5.320312 -3.429688 Z M 1.875 -3.277344 C 1.890625 -3.304688 1.890625 -3.320312 1.890625 -3.320312 C 2.097656 -3.765625 2.25 -4.238281 2.542969 -4.667969 L 2.792969 -5 C 2.847656 -5.070312 2.945312 -5.195312 3.042969 -5.222656 C 3.25 -5.265625 3.304688 -4.902344 3.292969 -4.765625 L 3.238281 -4.472656 C 3.222656 -4.390625 3.25 -4.332031 3.238281 -4.265625 C 3.207031 -4.179688 3.140625 -4.140625 3.097656 -4.070312 L 2.863281 -3.765625 C 2.542969 -3.390625 2.140625 -3.070312 1.695312 -2.832031 C 1.765625 -2.988281 1.804688 -3.140625 1.875 -3.277344 Z M 1.875 -3.277344 "/></g></g></g><g fill="#ffffff" fill-opacity="1"><g transform="translate(181.264921, 35.110252)"><g><path d="M 7.070312 -3.347656 C 7.054688 -3.652344 6.804688 -3.390625 6.722656 -3.277344 C 6.542969 -3.015625 6.375 -2.738281 6.207031 -2.472656 C 5.832031 -1.902344 5.457031 -1.332031 5.027344 -0.792969 C 3.597656 0.972656 4.597656 -2.167969 4.488281 -2.140625 C 4.429688 -2.125 4.390625 -1.917969 4.375 -1.875 C 4.488281 -2.375 4.695312 -2.972656 4.957031 -3.457031 C 5.113281 -3.765625 5.292969 -4.015625 5.015625 -4.347656 C 4.5 -4.972656 3.902344 -4.402344 3.570312 -3.972656 C 3.429688 -4.5 3.152344 -5.277344 2.472656 -5.277344 C 2.167969 -5.277344 1.984375 -5.125 1.777344 -4.945312 C 1.652344 -4.863281 1.554688 -4.847656 1.445312 -4.75 C 1.265625 -4.625 1.140625 -4.429688 1.015625 -4.265625 C 0.542969 -3.570312 0.207031 -2.695312 0.0546875 -1.890625 C -0.015625 -1.5 -0.0429688 -1.070312 0.0703125 -0.679688 C 0.140625 -0.457031 0.390625 0.0429688 0.707031 0 C 0.722656 0 0.695312 -0.015625 0.652344 -0.0429688 C 0.847656 0.015625 1.070312 -0.015625 1.234375 -0.125 C 1.25 -0.0976562 1.082031 -0.0273438 1.082031 -0.0273438 C 1.234375 0.207031 2.375 -1.167969 2.457031 -1.292969 C 2.640625 -1.542969 2.765625 -1.804688 2.929688 -2.070312 C 3.054688 -2.265625 3.25 -2.515625 3.390625 -2.722656 C 3.375 -2.625 3.375 -2.5 3.375 -2.5 C 3.125 -1.707031 2.890625 -0.847656 3.222656 -0.0273438 C 3.375 0.390625 3.75 0.777344 4.222656 0.695312 C 4.640625 0.625 4.988281 0.222656 5.238281 -0.0976562 C 5.542969 -0.457031 5.804688 -0.859375 6.070312 -1.277344 C 6.292969 -1.652344 6.5 -2.027344 6.679688 -2.445312 C 6.792969 -2.707031 7.097656 -3.027344 7.070312 -3.347656 Z M 3.082031 -3.25 C 3.015625 -3.152344 2.945312 -3.054688 2.890625 -2.957031 L 2.527344 -2.445312 C 2.292969 -2.097656 2.042969 -1.765625 1.777344 -1.445312 C 1.707031 -1.347656 1.375 -0.917969 1.234375 -0.957031 C 1.027344 -1.027344 1.25 -1.75 1.277344 -1.859375 C 1.320312 -2.054688 2.054688 -4.195312 2.25 -4.238281 C 2 -4.25 1.195312 -1.734375 1.152344 -1.527344 C 1.265625 -2.207031 1.515625 -2.875 1.792969 -3.5 C 1.945312 -3.820312 2.292969 -4.667969 2.75 -4.667969 C 3 -4.667969 3.054688 -4.152344 3.097656 -3.988281 C 3.082031 -4.015625 2.957031 -4.417969 2.945312 -4.402344 C 2.875 -4.347656 3.152344 -3.582031 3.152344 -3.472656 C 3.152344 -3.363281 3.152344 -3.363281 3.082031 -3.25 Z M 3.402344 -2.570312 C 3.402344 -2.570312 3.445312 -2.765625 3.457031 -2.804688 L 3.527344 -2.902344 Z M 3.195312 -3.429688 L 3.195312 -3.570312 C 3.238281 -3.515625 3.238281 -3.472656 3.195312 -3.429688 Z M 3.195312 -3.429688 "/></g></g></g><g clip-path="url(#a8ee495d4e)"><path fill="#0cc0df" d="M 10.5 18.609375 L 24.28125 18.609375 L 24.28125 87.507812 L 10.5 87.507812 Z M 10.5 18.609375 " fill-opacity="1" fill-rule="nonzero"/></g></svg>